<svg xmlns="http://www.w3.org/2000/svg" width="8" height="11.653" viewBox="0 0 8 11.653"><path d="M17199.01,10035.654H17199c-.359-.021-1.383-1.28-2.283-2.806-.527-.893-1.752-3.146-1.719-4.782a4.184,4.184,0,0,1,1.191-3.037A3.983,3.983,0,0,1,17199,10024a3.819,3.819,0,0,1,4,4.065,6.7,6.7,0,0,1-.523,2.281,17.456,17.456,0,0,1-1.2,2.486C17200.361,10034.415,17199.367,10035.654,17199.01,10035.654Zm.189-9.62a1.83,1.83,0,1,0,1.8,1.83A1.818,1.818,0,0,0,17199.2,10026.034Z" transform="translate(-17195 -10024.001)"/></svg>